# xmcd
#
# Track frame offsets: 
#        183
#        13313
#        26540
#        41915
#        57240
#
# Disc length: 1131 seconds
#
# Revision: 0
# Processed by: cddbd v1.5.2PL0 Copyright (c) Steve Scherf et al.
# Submitted via: ExactAudioCopyFreeDBPlugin 1.0
#
DISCID=3e046905
DTITLE=Vive la mariée - Chansons traditionnelles
DYEAR=1900
DGENRE=Country
TTITLE0=Les moines de Sant Bernardin....
TTITLE1=Jeanneton....
TTITLE2=Polichinelle....
TTITLE3=Trois jeunes tambours.....
TTITLE4=Alouette.....
EXTD=
EXTT0=
EXTT1=
EXTT2=
EXTT3=
EXTT4=
PLAYORDER=
